<svg width="463" height="84" viewBox="0 0 463 84" fill="none" xmlns="http://www.w3.org/2000/svg">
    <path d="M23.542 83.602C16.5473 83.602 10.9 82.1687 6.6 79.302C2.35733 76.378 0.236 72.1353 0.236 66.574C0.236 66.1153 0.293333 65.3127 0.408 64.166H18.21C18.038 66.1153 18.4393 67.6347 19.414 68.724C20.3887 69.8133 21.8793 70.358 23.886 70.358C25.5487 70.358 26.8673 69.9853 27.842 69.24C28.874 68.4947 29.39 67.434 29.39 66.058C29.39 64.4527 28.6447 63.134 27.154 62.102C25.7207 61.07 23.37 59.866 20.102 58.49C16.834 57.114 14.1393 55.824 12.018 54.62C9.89667 53.3587 8.062 51.6673 6.514 49.546C4.966 47.3673 4.192 44.6727 4.192 41.462C4.192 37.2767 5.224 33.6933 7.288 30.712C9.352 27.6733 12.2187 25.38 15.888 23.832C19.6147 22.2267 23.8573 21.424 28.616 21.424C32.916 21.424 36.7287 22.112 40.054 23.488C43.3793 24.8067 45.9593 26.7273 47.794 29.25C49.686 31.7727 50.632 34.754 50.632 38.194C50.632 39.1113 50.6033 39.7993 50.546 40.258H32.4C32.4573 39.9713 32.486 39.57 32.486 39.054C32.486 37.678 32.056 36.6173 31.196 35.872C30.336 35.0693 29.1607 34.668 27.67 34.668C26.122 34.668 24.8607 35.0693 23.886 35.872C22.9687 36.6173 22.51 37.678 22.51 39.054C22.51 40.5447 23.2267 41.8347 24.66 42.924C26.1507 43.956 28.444 45.1887 31.54 46.622C34.8653 48.17 37.5887 49.632 39.71 51.008C41.8887 52.3267 43.752 54.104 45.3 56.34C46.848 58.576 47.622 61.328 47.622 64.596C47.622 68.208 46.6473 71.476 44.698 74.4C42.7487 77.2667 39.968 79.5313 36.356 81.194C32.744 82.7993 28.4727 83.602 23.542 83.602ZM107.808 42.58C107.177 46.2493 105.744 49.6033 103.508 52.642C101.329 55.6233 98.3766 58.0313 94.6499 59.866C90.9232 61.6433 86.5946 62.532 81.6639 62.532H73.3219L69.7099 83H52.7679L63.5179 22.37H88.7159C95.0799 22.37 99.9246 23.832 103.25 26.756C106.575 29.6227 108.238 33.4927 108.238 38.366C108.238 39.57 108.095 40.9747 107.808 42.58ZM82.4379 49.202C87.1966 49.202 89.9486 46.9947 90.6939 42.58C90.8086 41.7773 90.8659 41.204 90.8659 40.86C90.8659 39.312 90.3499 38.108 89.3179 37.248C88.3432 36.3307 86.8239 35.872 84.7599 35.872H78.0519L75.7299 49.202H82.4379ZM136.768 83.602C131.665 83.602 127.164 82.5413 123.266 80.42C119.367 78.2987 116.357 75.3173 114.236 71.476C112.114 67.6347 111.054 63.22 111.054 58.232C111.054 51.0653 112.544 44.7013 115.526 39.14C118.564 33.5213 122.778 29.164 128.168 26.068C133.614 22.972 139.835 21.424 146.83 21.424C152.047 21.424 156.605 22.4847 160.504 24.606C164.46 26.67 167.498 29.6227 169.62 33.464C171.741 37.248 172.802 41.634 172.802 46.622C172.802 53.7313 171.282 60.0953 168.244 65.714C165.205 71.3327 160.962 75.7187 155.516 78.872C150.069 82.0253 143.82 83.602 136.768 83.602ZM139.348 67.95C142.73 67.95 145.683 67.0613 148.206 65.284C150.786 63.5067 152.735 61.156 154.054 58.232C155.43 55.2507 156.118 52.04 156.118 48.6C156.118 44.9307 155.114 42.0927 153.108 40.086C151.158 38.022 148.349 36.99 144.68 36.99C141.297 36.99 138.316 37.8787 135.736 39.656C133.156 41.376 131.178 43.698 129.802 46.622C128.426 49.546 127.738 52.7567 127.738 56.254C127.738 59.866 128.741 62.7327 130.748 64.854C132.754 66.918 135.621 67.95 139.348 67.95ZM212.457 22.37C218.821 22.37 223.666 23.8033 226.991 26.67C230.316 29.4793 231.979 33.2347 231.979 37.936C231.979 39.3693 231.864 40.6593 231.635 41.806C230.947 45.934 229.198 49.5747 226.389 52.728C223.58 55.824 219.853 58.0313 215.209 59.35L224.669 83H205.921L197.837 60.64H196.031L192.075 83H175.133L185.883 22.37H212.457ZM198.095 49.116H206.437C210.909 49.116 213.546 46.9947 214.349 42.752C214.464 42.064 214.521 41.5767 214.521 41.29C214.521 39.742 214.005 38.538 212.973 37.678C211.998 36.818 210.536 36.388 208.587 36.388H200.245L198.095 49.116ZM288.407 22.37L285.999 35.786H269.917L261.575 83H244.633L252.975 35.786H236.979L239.387 22.37H288.407ZM287.247 52.556C288.279 46.5933 290.458 41.29 293.783 36.646C297.108 31.9447 301.294 28.304 306.339 25.724C311.384 23.0867 316.888 21.768 322.851 21.768C327.839 21.768 332.196 22.6853 335.923 24.52C339.65 26.3547 342.545 28.9633 344.609 32.346C346.673 35.7287 347.791 39.7133 347.963 44.3H329.817C329.129 42.064 327.925 40.344 326.205 39.14C324.485 37.936 322.364 37.334 319.841 37.334C315.942 37.334 312.588 38.71 309.779 41.462C306.97 44.214 305.164 47.912 304.361 52.556C304.132 53.76 304.017 55.05 304.017 56.426C304.017 59.9807 304.934 62.79 306.769 64.854C308.661 66.8607 311.241 67.864 314.509 67.864C317.032 67.864 319.354 67.262 321.475 66.058C323.654 64.854 325.46 63.134 326.893 60.898H345.125C342.373 67.8353 338.044 73.3393 332.139 77.41C326.234 81.4233 319.497 83.43 311.929 83.43C306.712 83.43 302.182 82.4267 298.341 80.42C294.557 78.4133 291.662 75.5753 289.655 71.906C287.648 68.2367 286.645 63.994 286.645 59.178C286.645 56.942 286.846 54.7347 287.247 52.556ZM414.081 22.37L403.417 83H386.475L390.775 58.662H370.307L366.007 83H349.065L359.815 22.37H376.671L372.629 45.246H393.183L397.225 22.37H414.081ZM438.261 35.7L436.541 45.762H455.891L453.569 58.576H434.219L432.241 69.584H454.171L451.849 83H412.977L423.727 22.37H462.513L460.191 35.7H438.261ZM444.625 11.878L429.575 19.36L431.467 8.094L446.603 0.783997L459.073 8.094L457.095 19.36L444.625 11.878Z" fill="white" fill-opacity="0.49"/>
    </svg>
    